<?xml version="1.0" encoding="UTF-8" standalone="no"?>
<svg width="240px" height="48px" viewBox="0 0 240 48" version="1.1" xmlns="http://www.w3.org/2000/svg" xmlns:xlink="http://www.w3.org/1999/xlink" xmlns:sketch="http://www.bohemiancoding.com/sketch/ns">
    <!-- Generator: Sketch 3.4.4 (17249) - http://www.bohemiancoding.com/sketch -->
    <title>logo-en</title>
    <desc>Created with Sketch.</desc>
    <defs></defs>
    <g id="Page-1" stroke="none" stroke-width="1" fill="none" fill-rule="evenodd" sketch:type="MSPage">
        <g id="logo-en" sketch:type="MSArtboardGroup">
            <g id="logo" sketch:type="MSLayerGroup" transform="translate(4.000000, 4.000000)">
                <path d="M20,40 C17.374,40 14.821,39.499 12.412,38.51 L13.171,36.66 C15.338,37.549 17.636,38 20,38 C29.925,38 38,29.925 38,20 C38,10.075 29.925,2 20,2 C10.075,2 2,10.075 2,20 L0,20 C0,8.972 8.972,0 20,0 C31.028,0 40,8.972 40,20 C40,31.028 31.028,40 20,40" id="1" fill="#56B879" sketch:type="MSShapeGroup"></path>
                <path d="M9.448,34.584 C4.784,31.204 2,25.752 2,20 C2,19.447 1.552,19 1,19 C0.448,19 0,19.447 0,20 C0,26.391 3.093,32.448 8.274,36.203 L9.448,34.584" id="2" fill="#9ED16B" sketch:type="MSShapeGroup"></path>
                <path d="M12.791,38.585 C12.665,38.585 12.536,38.562 12.412,38.51 C10.95,37.91 9.558,37.134 8.274,36.203 C7.827,35.879 7.727,35.254 8.051,34.807 C8.377,34.359 9.002,34.26 9.448,34.584 C10.603,35.422 11.856,36.12 13.171,36.66 C13.682,36.869 13.926,37.453 13.717,37.965 C13.558,38.352 13.185,38.585 12.791,38.585" id="3" fill="#F0ED1F" sketch:type="MSShapeGroup"></path>
            </g>
            <g id="Imported-Layers" sketch:type="MSLayerGroup" transform="translate(59.000000, 8.800000)" fill="#1A1918">
                <path d="M32.675,2.274 L28.891,2.274 L28.891,0.94 L28.771,0.819 L27.939,0.819 L27.818,0.94 L27.818,2.274 L24.265,2.274 L24.265,0.94 L24.144,0.819 L23.312,0.819 L23.192,0.94 L23.192,2.274 L19.408,2.274 L19.287,2.395 L19.287,3.226 L19.408,3.346 L23.192,3.346 L23.192,4.68 L23.312,4.801 L24.144,4.801 L24.265,4.68 L24.265,3.346 L27.818,3.346 L27.818,4.68 L27.939,4.801 L28.771,4.801 L28.891,4.68 L28.891,3.346 L32.675,3.346 L32.796,3.226 L32.796,2.395 L32.675,2.274" id="Fill-1" sketch:type="MSShapeGroup"></path>
                <path d="M22.826,7.62 L22.949,7.497 L25.506,7.497 L25.503,9.69 L22.826,9.69 L22.826,7.62 L22.826,7.62 Z M29.256,7.497 L29.378,7.62 L29.378,9.69 L26.561,9.69 L26.571,7.497 L29.256,7.497 L29.256,7.497 Z M32.675,9.69 L30.451,9.69 L30.451,6.611 C30.451,6.508 30.368,6.425 30.266,6.425 L26.576,6.425 L26.583,4.938 L26.447,4.802 L25.646,4.8 L25.51,4.936 L25.508,6.425 L21.939,6.425 C21.836,6.425 21.753,6.508 21.753,6.611 L21.753,9.69 L19.408,9.69 L19.287,9.811 L19.287,10.642 L19.408,10.763 L25.179,10.763 C24.594,11.925 23.195,13.535 19.861,14.309 L19.768,14.453 C19.813,14.654 19.904,15.061 19.949,15.264 L20.098,15.356 C23.764,14.506 25.385,12.688 26.098,11.32 C26.595,12.334 28.023,14.316 31.806,15.127 L31.952,15.032 L32.119,14.219 L32.024,14.077 C28.515,13.322 27.353,11.497 27.019,10.763 L32.675,10.763 L32.796,10.642 L32.796,9.811 L32.675,9.69 L32.675,9.69 Z" id="Fill-2" sketch:type="MSShapeGroup"></path>
                <path d="M9.956,2.08 L9.956,0.674 L8.95,0.674 L8.95,2.08 L6.004,2.08 L6.004,0.674 L4.998,0.674 L4.998,2.08 L0.723,2.08 L0.723,3.086 L4.998,3.086 L4.998,4.213 L6.004,4.213 L6.004,3.086 L8.95,3.086 L8.95,4.213 L9.956,4.213 L9.956,3.086 L14.231,3.086 L14.231,2.08 L9.956,2.08" id="Fill-3" sketch:type="MSShapeGroup"></path>
                <path d="M7.263,5.692 L7.462,5.16 C7.462,5.16 7.52,5.014 7.37,5.014 L3.91,5.014 C4.105,4.662 4.215,4.399 4.268,4.263 C4.315,4.145 4.217,4.129 4.217,4.129 L3.417,3.887 L3.308,3.958 C3.169,4.308 2.573,5.59 0.899,7.078 L0.884,7.204 L1.436,7.84 L1.556,7.84 C2.327,7.164 2.887,6.521 3.297,5.965 L5.844,5.965 C5.93,5.965 5.985,6.057 5.943,6.132 C5.725,6.517 5.413,7.008 4.994,7.537 L4.154,6.688 L3.439,7.396 L4.333,8.298 C4.158,8.482 3.971,8.666 3.77,8.849 L2.863,7.931 L2.148,8.638 L2.993,9.492 C2.348,9.976 1.602,10.424 0.735,10.781 L0.695,10.878 L1.012,11.666 L1.12,11.711 C5.671,9.835 7.247,5.734 7.263,5.692" id="Fill-4" sketch:type="MSShapeGroup"></path>
                <path d="M10.529,7.888 C10.025,7.253 9.682,6.634 9.456,6.142 L9.54,6.019 L11.507,6.019 L11.586,6.15 L10.682,7.875 L10.529,7.888 L10.529,7.888 Z M11.406,8.66 L13.16,5.312 C13.232,5.177 13.133,5.014 12.979,5.014 L8.103,5.014 C7.975,5.014 8.025,5.159 8.025,5.159 L8.191,5.671 C8.505,6.641 9.832,9.921 13.712,11.423 L14.075,10.485 C12.868,10.103 11.661,8.993 11.419,8.762 L11.406,8.66 L11.406,8.66 Z" id="Fill-5" sketch:type="MSShapeGroup"></path>
                <path d="M5.851,8.711 L5.851,9.555 L5.932,9.636 L9.136,9.636 L9.216,9.555 L9.216,8.711 L9.136,8.631 L5.932,8.631 L5.851,8.711" id="Fill-6" sketch:type="MSShapeGroup"></path>
                <path d="M11.005,11.812 L11.086,11.732 L11.086,10.887 L11.005,10.807 L4.161,10.807 L4.081,10.887 L4.081,11.732 L4.161,11.812 L7.094,11.812 L7.094,14.366 L6.962,14.498 L6.275,14.498 L6.143,14.63 L6.143,15.372 L6.275,15.504 L7.655,15.504 C7.901,15.504 8.1,15.305 8.1,15.059 L8.1,11.812 L11.005,11.812" id="Fill-7" sketch:type="MSShapeGroup"></path>
                <path d="M13.239,14.579 L10.264,12.683 L10.126,12.713 L9.693,13.395 L9.723,13.531 L12.698,15.427 L12.835,15.397 L13.269,14.716 L13.239,14.579" id="Fill-8" sketch:type="MSShapeGroup"></path>
                <path d="M4.568,12.532 L4.431,12.505 L1.385,14.537 L1.357,14.674 L1.805,15.346 L1.943,15.373 L4.989,13.341 L5.016,13.204 L4.568,12.532" id="Fill-9" sketch:type="MSShapeGroup"></path>
                <path d="M50.422,3.447 L37.785,3.447 L37.66,3.571 L37.66,4.427 L37.785,4.552 L50.422,4.552 L50.546,4.427 L50.546,3.571 L50.422,3.447" id="Fill-10" sketch:type="MSShapeGroup"></path>
                <path d="M43.676,2.337 L44.531,2.337 L44.655,2.213 L44.655,0.528 L44.531,0.404 L43.676,0.404 L43.552,0.528 L43.552,2.213 L43.676,2.337" id="Fill-11" sketch:type="MSShapeGroup"></path>
                <path d="M50.314,13.755 C48.243,12.857 46.425,11.639 44.871,10.119 C45.899,8.988 46.806,7.719 47.585,6.312 L47.535,6.141 L46.784,5.732 L46.617,5.781 C45.895,7.087 45.054,8.266 44.103,9.319 C43.152,8.266 42.312,7.087 41.589,5.781 L41.422,5.732 L40.671,6.141 L40.622,6.312 C41.4,7.719 42.307,8.988 43.336,10.119 C41.781,11.639 39.963,12.857 37.892,13.755 L37.827,13.917 L38.163,14.703 L38.328,14.769 C40.526,13.816 42.454,12.526 44.103,10.915 C45.752,12.526 47.68,13.816 49.878,14.769 L50.044,14.703 L50.379,13.917 L50.314,13.755" id="Fill-12" sketch:type="MSShapeGroup"></path>
                <path d="M68.075,4.802 L68.075,14.138 L67.005,14.138 L67.005,4.802 L64.107,4.802 L64.107,3.817 L70.972,3.817 L70.972,4.802 L68.075,4.802" id="Fill-13" sketch:type="MSShapeGroup"></path>
                <path d="M76.118,14.225 C74.627,14.225 73.628,13.833 72.699,12.862 L73.417,12.123 C74.247,12.978 75.021,13.239 76.147,13.239 C77.624,13.239 78.524,12.543 78.524,11.326 C78.524,10.775 78.369,10.34 78.031,10.035 C77.722,9.746 77.44,9.644 76.724,9.528 L75.556,9.354 C74.768,9.224 74.177,8.977 73.727,8.571 C73.22,8.107 72.953,7.47 72.953,6.629 C72.953,4.875 74.177,3.73 76.16,3.73 C77.44,3.73 78.285,4.078 79.144,4.86 L78.454,5.571 C77.849,4.976 77.159,4.672 76.118,4.672 C74.768,4.672 73.994,5.44 73.994,6.6 C73.994,7.107 74.135,7.528 74.444,7.803 C74.754,8.079 75.232,8.252 75.753,8.339 L76.92,8.528 C77.849,8.673 78.285,8.847 78.735,9.267 C79.269,9.746 79.579,10.441 79.579,11.296 C79.579,13.108 78.215,14.225 76.118,14.225" id="Fill-14" sketch:type="MSShapeGroup"></path>
                <path d="M88.356,14.138 L87.554,11.804 L83.179,11.804 L82.377,14.138 L81.237,14.138 L84.923,3.817 L85.823,3.817 L89.495,14.138 L88.356,14.138 L88.356,14.138 Z M85.388,5.397 L83.502,10.847 L87.244,10.847 L85.388,5.397 L85.388,5.397 Z" id="Fill-15" sketch:type="MSShapeGroup"></path>
                <path d="M91.815,3.817 L92.884,3.817 L92.884,14.138 L91.815,14.138 L91.815,3.817 Z" id="Fill-16" sketch:type="MSShapeGroup"></path>
                <path d="M100.69,3.817 L101.759,3.817 L101.759,14.138 L100.69,14.138 L100.69,3.817 Z" id="Fill-17" sketch:type="MSShapeGroup"></path>
                <path d="M111.745,14.138 L106.428,5.86 L106.428,14.138 L105.358,14.138 L105.358,3.817 L106.371,3.817 L111.69,12.065 L111.69,3.817 L112.759,3.817 L112.759,14.138 L111.745,14.138" id="Fill-18" sketch:type="MSShapeGroup"></path>
                <path d="M122.153,13.036 C121.45,13.833 120.508,14.225 119.481,14.225 C118.44,14.225 117.596,13.848 116.977,13.21 C116.034,12.239 115.978,11.34 115.978,8.977 C115.978,6.614 116.034,5.716 116.977,4.745 C117.596,4.106 118.44,3.73 119.481,3.73 C121.365,3.73 122.702,5.034 122.983,6.817 L121.914,6.817 C121.633,5.498 120.732,4.715 119.481,4.715 C118.791,4.715 118.2,4.962 117.75,5.44 C117.117,6.107 117.047,6.861 117.047,8.977 C117.047,11.094 117.117,11.847 117.75,12.514 C118.2,12.993 118.791,13.239 119.481,13.239 C120.212,13.239 120.915,12.935 121.38,12.355 C121.788,11.833 121.942,11.268 121.942,10.485 L121.942,9.688 L119.481,9.688 L119.481,8.745 L123.012,8.745 L123.012,10.383 C123.012,11.572 122.801,12.297 122.153,13.036" id="Fill-19" sketch:type="MSShapeGroup"></path>
                <path d="M125.823,9.746 L129.678,9.746 L129.678,10.717 L125.823,10.717 L125.823,9.746 Z" id="Fill-20" sketch:type="MSShapeGroup"></path>
                <path d="M140.677,14.138 L139.679,14.138 L137.455,5.875 L135.232,14.138 L134.233,14.138 L131.673,3.817 L132.813,3.817 L134.769,12.137 L136.978,3.817 L137.934,3.817 L140.143,12.137 L142.099,3.817 L143.237,3.817 L140.677,14.138" id="Fill-21" sketch:type="MSShapeGroup"></path>
                <path d="M145.612,14.138 L145.612,3.817 L151.83,3.817 L151.83,4.802 L146.682,4.802 L146.682,8.441 L151.07,8.441 L151.07,9.427 L146.682,9.427 L146.682,13.152 L151.83,13.152 L151.83,14.138 L145.612,14.138" id="Fill-22" sketch:type="MSShapeGroup"></path>
                <path d="M161.141,14.138 L155.823,5.86 L155.823,14.138 L154.754,14.138 L154.754,3.817 L155.767,3.817 L161.085,12.065 L161.085,3.817 L162.154,3.817 L162.154,14.138 L161.141,14.138" id="Fill-23" sketch:type="MSShapeGroup"></path>
            </g>
            <path d="M64.905,39 L64.905,37.884 L61.998,37.884 L61.998,32.592 L60.747,32.592 L60.747,39 L64.905,39 Z M69.173,39 L69.173,32.592 L67.922,32.592 L67.922,39 L69.173,39 Z M77.23,36.372 L77.23,35.436 L74.809,35.436 L74.809,36.489 L75.988,36.489 L75.988,36.723 C75.988,37.056 75.907,37.344 75.7,37.578 C75.502,37.803 75.196,37.938 74.809,37.938 C74.467,37.938 74.197,37.812 74.008,37.605 C73.774,37.335 73.702,37.02 73.702,35.796 C73.702,34.572 73.774,34.266 74.008,33.996 C74.197,33.789 74.467,33.654 74.809,33.654 C75.448,33.654 75.817,33.978 75.961,34.59 L77.221,34.59 C77.05,33.51 76.303,32.538 74.809,32.538 C74.08,32.538 73.54,32.781 73.099,33.213 C72.46,33.852 72.451,34.572 72.451,35.796 C72.451,37.02 72.46,37.74 73.099,38.379 C73.54,38.811 74.08,39.054 74.809,39.054 C75.493,39.054 76.087,38.883 76.618,38.325 C77.086,37.839 77.23,37.299 77.23,36.372 L77.23,36.372 Z M85.179,39 L85.179,32.592 L83.928,32.592 L83.928,35.211 L81.759,35.211 L81.759,32.592 L80.508,32.592 L80.508,39 L81.759,39 L81.759,36.318 L83.928,36.318 L83.928,39 L85.179,39 Z M92.795,33.708 L92.795,32.592 L88.196,32.592 L88.196,33.708 L89.87,33.708 L89.87,39 L91.121,39 L91.121,33.708 L92.795,33.708 Z M104.517,36.804 L104.517,32.592 L103.275,32.592 L103.275,36.759 C103.275,37.497 102.834,37.938 102.159,37.938 C101.484,37.938 101.052,37.497 101.052,36.759 L101.052,32.592 L99.801,32.592 L99.801,36.804 C99.801,38.163 100.845,39.054 102.159,39.054 C103.473,39.054 104.517,38.163 104.517,36.804 L104.517,36.804 Z M112.511,34.59 C112.511,33.501 111.728,32.592 110.396,32.592 L107.912,32.592 L107.912,39 L109.163,39 L109.163,36.588 L110.396,36.588 C111.728,36.588 112.511,35.679 112.511,34.59 L112.511,34.59 Z M111.26,34.59 C111.26,35.112 110.9,35.463 110.333,35.463 L109.163,35.463 L109.163,33.708 L110.333,33.708 C110.9,33.708 111.26,34.068 111.26,34.59 L111.26,34.59 Z M123.774,33.708 L123.774,32.592 L119.175,32.592 L119.175,33.708 L120.849,33.708 L120.849,39 L122.1,39 L122.1,33.708 L123.774,33.708 Z M131.111,39 L128.771,32.592 L127.79,32.592 L125.459,39 L126.764,39 L127.151,37.866 L129.428,37.866 L129.806,39 L131.111,39 Z M129.095,36.813 L127.502,36.813 L128.312,34.482 L129.095,36.813 Z M135.154,39 L135.154,32.592 L133.903,32.592 L133.903,39 L135.154,39 Z M145.83,32.592 L144.525,32.592 L143.526,36.633 L142.356,32.592 L141.42,32.592 L140.25,36.633 L139.26,32.592 L137.955,32.592 L139.665,39 L140.709,39 L141.888,35.112 L143.067,39 L144.111,39 L145.83,32.592 Z M153.401,39 L151.061,32.592 L150.08,32.592 L147.749,39 L149.054,39 L149.441,37.866 L151.718,37.866 L152.096,39 L153.401,39 Z M151.385,36.813 L149.792,36.813 L150.602,34.482 L151.385,36.813 Z M161.098,39 L161.098,32.592 L159.847,32.592 L159.847,36.516 L157.309,32.592 L156.193,32.592 L156.193,39 L157.444,39 L157.444,35.067 L159.982,39 L161.098,39 Z" id="LIGHT-UP-TAIWAN" fill="#000000" sketch:type="MSShapeGroup"></path>
        </g>
    </g>
</svg>