<?xml version="1.0" encoding="UTF-8" standalone="no"?>
<svg width="240px" height="48px" viewBox="0 0 240 48" version="1.1" xmlns="http://www.w3.org/2000/svg" xmlns:xlink="http://www.w3.org/1999/xlink" xmlns:sketch="http://www.bohemiancoding.com/sketch/ns">
    <!-- Generator: Sketch 3.4.4 (17249) - http://www.bohemiancoding.com/sketch -->
    <title>logo-jp</title>
    <desc>Created with Sketch.</desc>
    <defs></defs>
    <g id="Page-1" stroke="none" stroke-width="1" fill="none" fill-rule="evenodd" sketch:type="MSPage">
        <g id="logo-jp" sketch:type="MSArtboardGroup">
            <g id="logo" sketch:type="MSLayerGroup" transform="translate(4.000000, 4.000000)">
                <path d="M20,40 C17.374,40 14.821,39.499 12.412,38.51 L13.171,36.66 C15.338,37.549 17.636,38 20,38 C29.925,38 38,29.925 38,20 C38,10.075 29.925,2 20,2 C10.075,2 2,10.075 2,20 L0,20 C0,8.972 8.972,0 20,0 C31.028,0 40,8.972 40,20 C40,31.028 31.028,40 20,40" id="1" fill="#56B879" sketch:type="MSShapeGroup"></path>
                <path d="M9.448,34.584 C4.784,31.204 2,25.752 2,20 C2,19.447 1.552,19 1,19 C0.448,19 0,19.447 0,20 C0,26.391 3.093,32.448 8.274,36.203 L9.448,34.584" id="2" fill="#9ED16B" sketch:type="MSShapeGroup"></path>
                <path d="M12.791,38.585 C12.665,38.585 12.536,38.562 12.412,38.51 C10.95,37.91 9.558,37.134 8.274,36.203 C7.827,35.879 7.727,35.254 8.051,34.807 C8.377,34.359 9.002,34.26 9.448,34.584 C10.603,35.422 11.856,36.12 13.171,36.66 C13.682,36.869 13.926,37.453 13.717,37.965 C13.558,38.352 13.185,38.585 12.791,38.585" id="3" fill="#F0ED1F" sketch:type="MSShapeGroup"></path>
            </g>
            <g id="Imported-Layers" sketch:type="MSLayerGroup" transform="translate(59.000000, 8.800000)" fill="#1A1918">
                <path d="M32.675,2.274 L28.891,2.274 L28.891,0.94 L28.771,0.819 L27.939,0.819 L27.818,0.94 L27.818,2.274 L24.265,2.274 L24.265,0.94 L24.144,0.819 L23.312,0.819 L23.192,0.94 L23.192,2.274 L19.408,2.274 L19.287,2.395 L19.287,3.226 L19.408,3.346 L23.192,3.346 L23.192,4.68 L23.312,4.801 L24.144,4.801 L24.265,4.68 L24.265,3.346 L27.818,3.346 L27.818,4.68 L27.939,4.801 L28.771,4.801 L28.891,4.68 L28.891,3.346 L32.675,3.346 L32.796,3.226 L32.796,2.395 L32.675,2.274" id="Fill-1" sketch:type="MSShapeGroup"></path>
                <path d="M22.826,7.62 L22.949,7.497 L25.506,7.497 L25.503,9.69 L22.826,9.69 L22.826,7.62 L22.826,7.62 Z M29.256,7.497 L29.378,7.62 L29.378,9.69 L26.561,9.69 L26.571,7.497 L29.256,7.497 L29.256,7.497 Z M32.675,9.69 L30.451,9.69 L30.451,6.611 C30.451,6.508 30.368,6.425 30.266,6.425 L26.576,6.425 L26.583,4.938 L26.447,4.802 L25.646,4.8 L25.51,4.936 L25.508,6.425 L21.939,6.425 C21.836,6.425 21.753,6.508 21.753,6.611 L21.753,9.69 L19.408,9.69 L19.287,9.811 L19.287,10.642 L19.408,10.763 L25.179,10.763 C24.594,11.925 23.195,13.535 19.861,14.309 L19.768,14.453 C19.813,14.654 19.904,15.061 19.949,15.264 L20.098,15.356 C23.764,14.506 25.385,12.688 26.098,11.32 C26.595,12.334 28.023,14.316 31.806,15.127 L31.952,15.032 L32.119,14.219 L32.024,14.077 C28.515,13.322 27.353,11.497 27.019,10.763 L32.675,10.763 L32.796,10.642 L32.796,9.811 L32.675,9.69 L32.675,9.69 Z" id="Fill-2" sketch:type="MSShapeGroup"></path>
                <path d="M9.956,2.08 L9.956,0.674 L8.95,0.674 L8.95,2.08 L6.004,2.08 L6.004,0.674 L4.998,0.674 L4.998,2.08 L0.723,2.08 L0.723,3.086 L4.998,3.086 L4.998,4.213 L6.004,4.213 L6.004,3.086 L8.95,3.086 L8.95,4.213 L9.956,4.213 L9.956,3.086 L14.231,3.086 L14.231,2.08 L9.956,2.08" id="Fill-3" sketch:type="MSShapeGroup"></path>
                <path d="M7.263,5.692 L7.462,5.16 C7.462,5.16 7.52,5.014 7.37,5.014 L3.91,5.014 C4.105,4.662 4.215,4.399 4.268,4.263 C4.315,4.145 4.217,4.129 4.217,4.129 L3.417,3.887 L3.308,3.958 C3.169,4.308 2.573,5.59 0.899,7.078 L0.884,7.204 L1.436,7.84 L1.556,7.84 C2.327,7.164 2.887,6.521 3.297,5.965 L5.844,5.965 C5.93,5.965 5.985,6.057 5.943,6.132 C5.725,6.517 5.413,7.008 4.994,7.537 L4.154,6.688 L3.439,7.396 L4.333,8.298 C4.158,8.482 3.971,8.666 3.77,8.849 L2.863,7.931 L2.148,8.638 L2.993,9.492 C2.348,9.976 1.602,10.424 0.735,10.781 L0.695,10.878 L1.012,11.666 L1.12,11.711 C5.671,9.835 7.247,5.734 7.263,5.692" id="Fill-4" sketch:type="MSShapeGroup"></path>
                <path d="M10.529,7.888 C10.025,7.253 9.682,6.634 9.456,6.142 L9.54,6.019 L11.507,6.019 L11.586,6.15 L10.682,7.875 L10.529,7.888 L10.529,7.888 Z M11.406,8.66 L13.16,5.312 C13.232,5.177 13.133,5.014 12.979,5.014 L8.103,5.014 C7.975,5.014 8.025,5.159 8.025,5.159 L8.191,5.671 C8.505,6.641 9.832,9.921 13.712,11.423 L14.075,10.485 C12.868,10.103 11.661,8.993 11.419,8.762 L11.406,8.66 L11.406,8.66 Z" id="Fill-5" sketch:type="MSShapeGroup"></path>
                <path d="M5.851,8.711 L5.851,9.555 L5.932,9.636 L9.136,9.636 L9.216,9.555 L9.216,8.711 L9.136,8.631 L5.932,8.631 L5.851,8.711" id="Fill-6" sketch:type="MSShapeGroup"></path>
                <path d="M11.005,11.812 L11.086,11.732 L11.086,10.887 L11.005,10.807 L4.161,10.807 L4.081,10.887 L4.081,11.732 L4.161,11.812 L7.094,11.812 L7.094,14.366 L6.962,14.498 L6.275,14.498 L6.143,14.63 L6.143,15.372 L6.275,15.504 L7.655,15.504 C7.901,15.504 8.1,15.305 8.1,15.059 L8.1,11.812 L11.005,11.812" id="Fill-7" sketch:type="MSShapeGroup"></path>
                <path d="M13.239,14.579 L10.264,12.683 L10.126,12.713 L9.693,13.395 L9.723,13.531 L12.698,15.427 L12.835,15.397 L13.269,14.716 L13.239,14.579" id="Fill-8" sketch:type="MSShapeGroup"></path>
                <path d="M4.568,12.532 L4.431,12.505 L1.385,14.537 L1.357,14.674 L1.805,15.346 L1.943,15.373 L4.989,13.341 L5.016,13.204 L4.568,12.532" id="Fill-9" sketch:type="MSShapeGroup"></path>
                <path d="M50.422,3.447 L37.785,3.447 L37.66,3.571 L37.66,4.427 L37.785,4.552 L50.422,4.552 L50.546,4.427 L50.546,3.571 L50.422,3.447" id="Fill-10" sketch:type="MSShapeGroup"></path>
                <path d="M43.676,2.337 L44.531,2.337 L44.655,2.213 L44.655,0.528 L44.531,0.404 L43.676,0.404 L43.552,0.528 L43.552,2.213 L43.676,2.337" id="Fill-11" sketch:type="MSShapeGroup"></path>
                <path d="M50.314,13.755 C48.243,12.857 46.425,11.639 44.871,10.119 C45.899,8.988 46.806,7.719 47.585,6.312 L47.535,6.141 L46.784,5.732 L46.617,5.781 C45.895,7.087 45.054,8.266 44.103,9.319 C43.152,8.266 42.312,7.087 41.589,5.781 L41.422,5.732 L40.671,6.141 L40.622,6.312 C41.4,7.719 42.307,8.988 43.336,10.119 C41.781,11.639 39.963,12.857 37.892,13.755 L37.827,13.917 L38.163,14.703 L38.328,14.769 C40.526,13.816 42.454,12.526 44.103,10.915 C45.752,12.526 47.68,13.816 49.878,14.769 L50.044,14.703 L50.379,13.917 L50.314,13.755" id="Fill-12" sketch:type="MSShapeGroup"></path>
            </g>
            <path d="M67.371,33.293 C67.254,33.338 67.038,33.374 66.795,33.374 L62.187,33.374 C61.926,33.374 61.584,33.347 61.233,33.311 L61.233,34.247 C61.575,34.22 61.971,34.211 62.187,34.211 L66.768,34.211 C66.606,34.805 66.282,35.48 65.769,36.011 C65.031,36.776 63.924,37.361 62.619,37.631 L63.321,38.441 C64.473,38.117 65.616,37.55 66.543,36.524 C67.209,35.786 67.605,34.877 67.866,33.995 C67.884,33.923 67.956,33.788 68.001,33.689 L67.371,33.293 Z M62.052,32.141 C62.304,32.123 62.628,32.114 62.907,32.114 L66.408,32.114 C66.714,32.114 67.074,32.123 67.299,32.141 L67.299,31.214 C67.074,31.241 66.705,31.259 66.417,31.259 L62.907,31.259 C62.619,31.259 62.295,31.241 62.052,31.214 L62.052,32.141 Z M76.445,33.491 C77.354,32.906 78.2,32.204 78.848,31.556 L78.083,30.863 C77.579,31.511 76.643,32.312 75.734,32.879 C74.735,33.5 73.214,34.166 71.675,34.517 L72.188,35.39 C73.304,35.075 74.501,34.571 75.446,34.067 L75.446,37.271 C75.446,37.64 75.419,38.135 75.392,38.333 L76.508,38.333 C76.463,38.135 76.445,37.64 76.445,37.271 L76.445,33.491 Z M89.713,34.814 C88.813,34.373 87.094,33.734 85.906,33.374 L85.906,31.97 C85.906,31.655 85.942,31.259 85.969,30.962 L84.862,30.962 C84.916,31.268 84.943,31.682 84.943,31.97 L84.943,37.172 C84.943,37.523 84.916,38.009 84.871,38.324 L85.978,38.324 C85.933,38 85.906,37.451 85.906,37.172 L85.906,34.391 C86.896,34.715 88.354,35.282 89.308,35.795 L89.713,34.814 Z M96.816,33.113 C96.861,33.374 96.87,33.59 96.87,33.833 C96.87,35.327 96.663,36.461 95.376,37.289 C95.088,37.496 94.773,37.64 94.512,37.73 L95.34,38.405 C97.707,37.19 97.842,35.462 97.842,33.113 L96.816,33.113 Z M100.911,31.385 C100.767,31.421 100.362,31.448 100.155,31.448 L95.124,31.448 C94.773,31.448 94.404,31.412 94.071,31.367 L94.071,32.366 C94.458,32.339 94.773,32.312 95.124,32.312 L100.065,32.312 C99.804,32.825 99.012,33.716 98.229,34.175 L98.976,34.778 C99.939,34.094 100.794,32.951 101.181,32.294 C101.253,32.186 101.397,32.015 101.478,31.916 L100.911,31.385 Z M108.437,32.744 L107.591,33.023 C107.798,33.455 108.203,34.58 108.311,35.003 L109.157,34.697 C109.04,34.301 108.599,33.122 108.437,32.744 L108.437,32.744 Z M110.732,33.005 C110.606,34.139 110.156,35.309 109.535,36.083 C108.788,37.01 107.6,37.694 106.583,37.982 L107.33,38.747 C108.347,38.351 109.463,37.631 110.291,36.569 C110.921,35.768 111.308,34.814 111.551,33.86 C111.587,33.707 111.641,33.545 111.722,33.32 L110.732,33.005 Z M106.34,33.212 L105.494,33.518 C105.692,33.869 106.16,35.093 106.313,35.57 L107.168,35.255 C106.997,34.769 106.547,33.626 106.34,33.212 L106.34,33.212 Z M122.794,32.033 C122.488,32.033 122.236,31.79 122.236,31.475 C122.236,31.169 122.488,30.917 122.794,30.917 C123.109,30.917 123.361,31.169 123.361,31.475 C123.361,31.79 123.109,32.033 122.794,32.033 L122.794,32.033 Z M117.043,31.736 C116.746,31.736 116.323,31.709 116.071,31.673 L116.071,32.672 C116.296,32.663 116.656,32.645 117.043,32.645 L121.462,32.645 C121.345,33.464 120.958,34.616 120.337,35.408 C119.599,36.344 118.582,37.118 116.818,37.55 L117.592,38.396 C119.221,37.883 120.346,37.019 121.165,35.957 C121.894,34.994 122.317,33.572 122.515,32.654 L122.56,32.483 C122.632,32.501 122.713,32.51 122.794,32.51 C123.37,32.51 123.838,32.051 123.838,31.475 C123.838,30.908 123.37,30.44 122.794,30.44 C122.227,30.44 121.759,30.908 121.759,31.475 C121.759,31.556 121.768,31.637 121.786,31.718 C121.651,31.736 121.516,31.736 121.408,31.736 L117.043,31.736 Z M132.498,35.642 L132.498,37.514 L128.466,37.514 L128.466,35.642 L132.498,35.642 Z M127.611,38.702 L128.466,38.702 L128.466,38.324 L132.498,38.324 L132.498,38.693 L133.398,38.693 L133.398,34.841 L127.611,34.841 L127.611,38.702 Z M131.517,31.907 C131.859,32.195 132.21,32.528 132.552,32.87 C131.319,32.924 130.077,32.969 128.952,33.014 C129.42,32.312 129.915,31.475 130.311,30.719 L129.375,30.395 C129.033,31.214 128.475,32.258 127.953,33.05 L126.594,33.095 L126.657,33.941 C128.313,33.869 130.851,33.77 133.254,33.653 C133.506,33.95 133.713,34.238 133.857,34.49 L134.595,33.932 C134.127,33.176 133.065,32.141 132.174,31.421 L131.517,31.907 Z M139.817,31.421 C139.493,31.106 138.809,30.728 138.278,30.503 L137.81,31.124 C138.341,31.376 139.016,31.799 139.322,32.105 L139.817,31.421 Z M140.492,32.105 C140.276,32.573 139.88,33.023 139.448,33.338 C139.61,33.446 139.898,33.662 140.015,33.779 C140.465,33.419 140.933,32.861 141.203,32.294 L140.492,32.105 Z M139.358,33.752 C139.025,33.464 138.341,33.104 137.81,32.897 L137.342,33.527 C137.891,33.761 138.557,34.157 138.872,34.454 L139.358,33.752 Z M138.323,38.594 C138.782,37.748 139.286,36.677 139.682,35.732 L139.034,35.228 C138.593,36.254 137.999,37.406 137.585,38.099 L138.323,38.594 Z M140.96,36.533 L141.095,36.029 L144.938,36.029 L144.938,34.22 L141.347,34.22 C142.175,33.707 142.328,32.915 142.328,32.393 L142.328,31.916 L142.994,31.916 L142.994,33.401 C142.994,33.482 142.967,33.5 142.886,33.5 C142.796,33.509 142.562,33.509 142.274,33.5 C142.364,33.68 142.463,33.923 142.508,34.121 C142.94,34.121 143.237,34.112 143.471,34.013 C143.687,33.914 143.732,33.743 143.732,33.419 L143.732,31.916 L145.568,31.916 L145.568,31.214 L143.048,31.214 L143.048,30.44 L142.202,30.44 L142.202,31.214 L139.871,31.214 L139.871,31.916 L141.59,31.916 L141.59,32.366 C141.59,32.798 141.455,33.446 140.645,33.86 C140.789,33.941 140.996,34.103 141.14,34.22 L139.997,34.22 L139.997,34.85 L144.155,34.85 L144.155,35.399 L140.42,35.399 C140.294,36.047 140.069,36.839 139.88,37.388 L140.681,37.505 L140.78,37.181 L144.371,37.181 C144.263,37.631 144.137,37.865 144.011,37.973 C143.921,38.036 143.849,38.045 143.687,38.045 C143.516,38.045 143.075,38.036 142.652,37.991 C142.769,38.18 142.859,38.477 142.868,38.684 C143.336,38.72 143.786,38.711 144.011,38.693 C144.281,38.684 144.461,38.63 144.65,38.486 C144.893,38.27 145.082,37.811 145.262,36.866 C145.289,36.758 145.316,36.533 145.316,36.533 L140.96,36.533 Z M143.948,32.447 C144.362,32.861 144.821,33.428 145.01,33.815 L145.667,33.446 C145.451,33.059 144.983,32.51 144.551,32.123 L143.948,32.447 Z" id="ライトアップ台湾" fill="#000000" sketch:type="MSShapeGroup"></path>
        </g>
    </g>
</svg>