<?xml version="1.0" encoding="UTF-8" standalone="no"?>
<svg width="240px" height="48px" viewBox="0 0 240 48" version="1.1" xmlns="http://www.w3.org/2000/svg" xmlns:xlink="http://www.w3.org/1999/xlink" xmlns:sketch="http://www.bohemiancoding.com/sketch/ns">
    <!-- Generator: Sketch 3.4.4 (17249) - http://www.bohemiancoding.com/sketch -->
    <title>logo-zh-new</title>
    <desc>Created with Sketch.</desc>
    <defs></defs>
    <g id="Page-1" stroke="none" stroke-width="1" fill="none" fill-rule="evenodd" sketch:type="MSPage">
        <g id="logo-zh-new" sketch:type="MSArtboardGroup">
            <g id="Group" sketch:type="MSLayerGroup" transform="translate(4.000000, 4.000000)">
                <path d="M20.333,40 C17.707,40 15.154,39.499 12.745,38.51 L13.504,36.66 C15.671,37.549 17.969,38 20.333,38 C30.258,38 38.333,29.925 38.333,20 C38.333,10.075 30.258,2 20.333,2 C10.408,2 2.333,10.075 2.333,20 L0.333,20 C0.333,8.972 9.305,0 20.333,0 C31.361,0 40.333,8.972 40.333,20 C40.333,31.028 31.361,40 20.333,40" id="Fill-1" fill="#56B879" sketch:type="MSShapeGroup"></path>
                <path d="M9.781,34.584 C5.117,31.204 2.333,25.752 2.333,20 C2.333,19.447 1.885,19 1.333,19 C0.781,19 0.333,19.447 0.333,20 C0.333,26.391 3.426,32.448 8.607,36.203 L9.781,34.584" id="Fill-2" fill="#9ED16B" sketch:type="MSShapeGroup"></path>
                <path d="M13.124,38.585 C12.998,38.585 12.869,38.562 12.745,38.51 C11.283,37.91 9.891,37.134 8.607,36.203 C8.16,35.879 8.06,35.254 8.384,34.807 C8.71,34.359 9.335,34.26 9.781,34.584 C10.936,35.422 12.189,36.12 13.504,36.66 C14.015,36.869 14.259,37.453 14.05,37.965 C13.891,38.352 13.518,38.585 13.124,38.585" id="Fill-3" fill="#F0ED1F" sketch:type="MSShapeGroup"></path>
                <g transform="translate(55.000000, 5.000000)" sketch:type="MSShapeGroup">
                    <rect id="Rectangle-1" fill="#C8E5CD" x="86" y="0" width="1" height="17"></rect>
                    <path d="M133.69,2.282 L130,2.282 L130,1.116 C130,1.048 129.944,0.992 129.876,0.992 L129.017,0.992 C128.948,0.992 128.892,1.048 128.892,1.116 L128.892,2.282 L125.01,2.282 L125.01,1.116 C125.01,1.048 124.954,0.992 124.885,0.992 L124.026,0.992 C123.958,0.992 123.902,1.048 123.902,1.116 L123.902,2.282 L119.997,2.282 C119.928,2.282 119.872,2.338 119.872,2.407 L119.872,3.266 C119.872,3.334 119.928,3.39 119.997,3.39 L123.902,3.39 L123.902,4.979 C123.902,5.048 123.958,5.104 124.026,5.104 L124.885,5.104 C124.954,5.104 125.01,5.048 125.01,4.979 L125.01,3.39 L128.892,3.39 L128.892,4.979 C128.892,5.048 128.948,5.104 129.017,5.104 L129.876,5.104 C129.944,5.104 130,5.048 130,4.979 L130,3.39 L133.69,3.39 C133.758,3.39 133.814,3.334 133.814,3.266 L133.814,2.407 C133.814,2.338 133.758,2.282 133.69,2.282" id="Fill-5" fill="#000000"></path>
                    <path d="M133.69,10.188 L131.226,10.188 L131.226,7.19 C131.226,7.085 131.14,6.999 131.034,6.999 L127.395,6.999 L127.402,5.28 C127.402,5.203 127.339,5.14 127.262,5.14 L126.435,5.139 C126.357,5.139 126.294,5.201 126.294,5.279 L126.292,7.003 L122.695,7.003 C122.59,7.003 122.504,7.089 122.504,7.194 L122.504,10.188 L119.997,10.188 C119.928,10.188 119.872,10.243 119.872,10.313 L119.872,11.171 C119.872,11.239 119.928,11.295 119.997,11.295 L125.953,11.295 C125.348,12.495 123.906,14.158 120.465,14.957 C120.397,14.973 120.353,15.039 120.369,15.107 C120.415,15.314 120.508,15.734 120.555,15.943 C120.57,16.012 120.64,16.054 120.709,16.039 C124.493,15.162 126.165,13.284 126.901,11.87 C127.414,12.918 128.889,14.964 132.793,15.802 C132.861,15.817 132.929,15.772 132.943,15.704 L133.116,14.864 C133.129,14.797 133.085,14.732 133.018,14.718 C129.396,13.938 128.197,12.054 127.853,11.295 L133.69,11.295 C133.758,11.295 133.814,11.239 133.814,11.171 L133.814,10.313 C133.814,10.243 133.758,10.188 133.69,10.188 L133.69,10.188 Z M129.992,7.924 C130.061,7.924 130.118,7.98 130.118,8.05 L130.118,10.188 L127.379,10.188 L127.39,7.924 L129.992,7.924 L129.992,7.924 Z M123.612,8.05 C123.612,7.98 123.668,7.924 123.738,7.924 L126.291,7.924 L126.288,10.188 L123.612,10.188 L123.612,8.05 L123.612,8.05 Z" id="Fill-6" fill="#000000"></path>
                    <path d="M109.996,2.33 L109.996,0.992 L108.996,0.992 L108.996,2.33 L106,2.33 L106,0.992 L105.012,0.992 L105.012,2.33 L100.711,2.33 L100.711,3.369 L105.012,3.369 L105.012,4.533 L106,4.533 L106,3.369 L108.996,3.369 L108.996,4.533 L109.996,4.533 L109.996,3.369 L114.653,3.369 L114.653,2.33 L109.996,2.33" id="Fill-7" fill="#000000"></path>
                    <path d="M107.461,6.059 L107.666,5.51 C107.666,5.51 107.727,5.359 107.571,5.359 L104.002,5.359 C104.202,4.996 104.315,4.724 104.371,4.584 C104.418,4.462 104.317,4.445 104.317,4.445 L103.493,4.196 C103.493,4.196 103.403,4.208 103.379,4.269 C103.237,4.631 102.621,5.954 100.892,7.491 C100.815,7.56 100.878,7.621 100.878,7.621 L101.447,8.277 C101.447,8.277 101.498,8.342 101.57,8.278 C102.366,7.58 102.945,6.916 103.367,6.342 L105.997,6.342 C106.086,6.342 106.143,6.437 106.099,6.514 C105.874,6.912 105.552,7.419 105.12,7.965 L104.252,7.088 L103.515,7.819 L104.437,8.75 C104.256,8.94 104.064,9.131 103.857,9.319 L102.919,8.371 L102.182,9.102 L103.054,9.984 C102.389,10.484 101.619,10.947 100.725,11.315 L100.682,11.415 L101.01,12.229 L101.121,12.275 C105.819,10.338 107.445,6.103 107.461,6.059" id="Fill-8" fill="#000000"></path>
                    <path d="M111.738,9.124 L113.548,5.668 C113.622,5.527 113.52,5.359 113.361,5.359 L108.328,5.359 C108.196,5.359 108.248,5.51 108.248,5.51 L108.419,6.038 C108.744,7.039 110.113,10.427 114.118,11.977 L114.493,11.009 C113.247,10.614 112.001,9.469 111.751,9.229 L111.738,9.124 L111.738,9.124 Z M110.832,8.327 C110.312,7.672 109.958,7.032 109.725,6.525 C109.697,6.464 109.744,6.398 109.812,6.398 L111.841,6.398 C111.911,6.398 111.955,6.471 111.923,6.532 L110.99,8.313 C110.959,8.373 110.874,8.379 110.832,8.327 L110.832,8.327 Z" id="Fill-9" fill="#000000"></path>
                    <path d="M106.004,9.177 L106.004,10.05 L106.087,10.133 L109.394,10.133 L109.477,10.05 L109.477,9.177 L109.394,9.095 L106.087,9.095 L106.004,9.177" id="Fill-10" fill="#000000"></path>
                    <path d="M111.324,12.38 L111.407,12.296 L111.407,11.425 L111.324,11.341 L104.26,11.341 L104.177,11.425 L104.177,12.296 L104.26,12.38 L107.288,12.38 L107.288,15.017 C107.288,15.092 107.226,15.154 107.151,15.154 L106.442,15.154 C106.367,15.154 106.306,15.215 106.306,15.29 L106.306,16.055 C106.306,16.131 106.367,16.192 106.442,16.192 L107.866,16.192 C108.12,16.192 108.326,15.986 108.326,15.732 L108.326,12.38 L111.324,12.38" id="Fill-11" fill="#000000"></path>
                    <path d="M113.629,15.236 L110.558,13.279 L110.417,13.31 L109.969,14.013 L110,14.155 L113.071,16.112 L113.213,16.081 L113.661,15.377 L113.629,15.236" id="Fill-12" fill="#000000"></path>
                    <path d="M104.681,13.123 L104.539,13.095 L101.395,15.193 L101.367,15.335 L101.829,16.029 L101.971,16.057 L105.114,13.959 L105.143,13.817 L104.681,13.123" id="Fill-13" fill="#000000"></path>
                    <path d="M152.006,3.58 L138.963,3.58 C138.893,3.58 138.835,3.637 138.835,3.708 L138.835,4.591 C138.835,4.662 138.893,4.72 138.963,4.72 L152.006,4.72 C152.078,4.72 152.135,4.662 152.135,4.591 L152.135,3.708 C152.135,3.637 152.078,3.58 152.006,3.58" id="Fill-14" fill="#000000"></path>
                    <path d="M145.044,2.775 L145.926,2.775 C145.997,2.775 146.054,2.718 146.054,2.647 L146.054,0.907 C146.054,0.836 145.997,0.778 145.926,0.778 L145.044,0.778 C144.972,0.778 144.915,0.836 144.915,0.907 L144.915,2.647 C144.915,2.718 144.972,2.775 145.044,2.775" id="Fill-15" fill="#000000"></path>
                    <path d="M151.895,14.566 C149.758,13.638 147.881,12.381 146.277,10.811 C147.339,9.643 148.275,8.333 149.078,6.88 C149.113,6.817 149.089,6.738 149.026,6.703 L148.252,6.281 C148.19,6.247 148.113,6.27 148.079,6.332 C147.334,7.68 146.466,8.897 145.485,9.985 C144.503,8.897 143.636,7.68 142.89,6.332 C142.856,6.27 142.78,6.247 142.718,6.281 L141.943,6.703 C141.881,6.738 141.857,6.817 141.892,6.88 C142.695,8.333 143.631,9.643 144.693,10.811 C143.088,12.381 141.212,13.638 139.075,14.566 C139.01,14.594 138.98,14.668 139.007,14.732 L139.353,15.545 C139.382,15.61 139.459,15.641 139.525,15.613 C141.793,14.629 143.783,13.296 145.485,11.632 C147.187,13.296 149.177,14.629 151.445,15.613 C151.511,15.641 151.588,15.61 151.616,15.545 L151.963,14.732 C151.99,14.668 151.959,14.594 151.895,14.566" id="Fill-16" fill="#000000"></path>
                    <path d="M1.057,10.84 L1.152,11.572 L8.823,10.582 L8.728,9.851 L5.559,10.259 L5.559,8.897 L8.644,8.897 L8.644,8.16 L5.559,8.16 L5.559,6.686 L8.505,6.686 L8.505,1.48 L1.876,1.48 L1.876,6.686 L4.822,6.686 L4.822,8.16 L1.737,8.16 L1.737,8.897 L4.822,8.897 L4.822,10.354 L1.057,10.84 L1.057,10.84 Z M5.559,2.217 L7.769,2.217 L7.769,5.948 L5.559,5.948 L5.559,2.217 Z M2.612,2.217 L4.822,2.217 L4.822,5.948 L2.612,5.948 L2.612,2.217 Z" id="Fill-17" fill="#000000"></path>
                    <path d="M3.688,3.04 L3.001,3.305 L3.707,5.127 L4.394,4.861 L3.688,3.04" id="Fill-18" fill="#000000"></path>
                    <path d="M6.673,5.127 L7.38,3.305 L6.693,3.04 L5.987,4.861 L6.673,5.127" id="Fill-19" fill="#000000"></path>
                    <path d="M0.886,15.575 L1.521,15.947 C2.456,14.35 2.616,12.618 2.618,12.601 L1.884,12.543 C1.882,12.558 1.724,14.143 0.886,15.575" id="Fill-20" fill="#000000"></path>
                    <path d="M3.758,12.721 C3.965,13.424 4.12,14.459 4.185,15.56 L4.92,15.516 C4.852,14.362 4.686,13.268 4.466,12.513 L3.758,12.721" id="Fill-21" fill="#000000"></path>
                    <path d="M5.688,12.504 C5.929,13.224 6.141,14.292 6.243,15.292 L6.976,15.217 C6.867,14.151 6.647,13.05 6.387,12.271 L5.688,12.504" id="Fill-22" fill="#000000"></path>
                    <path d="M7.676,12.192 C7.889,12.803 8.164,13.654 8.389,14.818 L9.112,14.677 C8.878,13.468 8.594,12.584 8.372,11.948 L7.676,12.192" id="Fill-23" fill="#000000"></path>
                    <path d="M15.093,4.728 L15.093,3.991 L12.331,3.991 L12.331,1.434 L11.594,1.434 L11.594,8.874 L9.921,8.874 L9.921,14.472 L14.748,14.472 L14.748,8.874 L12.331,8.874 L12.331,4.728 L15.093,4.728 L15.093,4.728 Z M10.658,9.612 L14.012,9.612 L14.012,13.735 L10.658,13.735 L10.658,9.612 Z" id="Fill-24" fill="#000000"></path>
                    <path d="M32.949,2.287 L27.446,2.287 L27.446,0.59 L26.708,0.59 L26.708,2.287 L21.205,2.287 L21.205,3.025 L32.949,3.025 L32.949,2.287" id="Fill-25" fill="#000000"></path>
                    <path d="M23.945,7.201 L30.284,7.201 L30.284,4.083 L23.945,4.083 L23.945,7.201 Z M24.681,4.821 L29.548,4.821 L29.548,6.464 L24.681,6.464 L24.681,4.821 Z" id="Fill-26" fill="#000000"></path>
                    <path d="M21.454,9.132 L32.864,9.132 L32.864,10.635 L33.601,10.635 L33.601,8.396 L20.717,8.396 L20.717,10.635 L21.454,10.635 L21.454,9.132" id="Fill-27" fill="#000000"></path>
                    <path d="M20.242,15.096 L20.405,15.815 C25.065,14.754 25.638,11.478 25.667,10.119 L24.931,10.103 C24.899,11.577 24.247,14.185 20.242,15.096" id="Fill-28" fill="#000000"></path>
                    <path d="M33.485,13.217 L33.129,14.181 C33.079,14.313 32.951,14.402 32.809,14.402 L29.51,14.402 C29.288,14.402 29.108,14.22 29.108,13.997 L29.108,10.066 L28.371,10.066 L28.371,13.997 C28.371,14.627 28.882,15.139 29.51,15.139 L32.809,15.139 C33.255,15.139 33.66,14.859 33.818,14.438 L34.176,13.472 L33.485,13.217" id="Fill-29" fill="#000000"></path>
                    <path d="M51.628,7.753 C50.499,6.011 49.159,4.272 48.516,3.599 L47.983,4.108 C48.261,4.4 48.682,4.909 49.156,5.528 L41.869,6.449 L44.677,1.139 L44.025,0.794 L40.976,6.561 L38.933,6.82 L39.025,7.551 L49.665,6.207 C50.108,6.813 50.574,7.481 51.01,8.154 L51.628,7.753" id="Fill-30" fill="#000000"></path>
                    <path d="M41.005,15.915 L41.742,15.915 L41.742,14.917 L48.726,14.917 L48.726,15.915 L49.462,15.915 L49.462,9.896 L41.005,9.896 L41.005,15.915 L41.005,15.915 Z M41.742,10.633 L48.725,10.633 L48.725,14.18 L41.742,14.18 L41.742,10.633 Z" id="Fill-31" fill="#000000"></path>
                    <path d="M56.822,1.638 L58.715,3.563 L59.233,3.053 L57.339,1.128 L56.822,1.638" id="Fill-32" fill="#000000"></path>
                    <path d="M58.703,6.888 L56.809,4.963 L56.291,5.473 L58.185,7.399 L58.703,6.888" id="Fill-33" fill="#000000"></path>
                    <path d="M58.04,10.033 C57.75,11.156 57.264,13.037 56.196,15.788 L56.874,16.052 C57.957,13.261 58.469,11.279 58.744,10.215 C58.805,9.979 58.856,9.782 58.9,9.625 L58.2,9.428 C58.154,9.589 58.103,9.791 58.04,10.033" id="Fill-34" fill="#000000"></path>
                    <path d="M59.374,9.162 L59.907,9.279 C60.134,8.25 60.288,7.209 60.289,7.198 L59.75,7.119 C59.748,7.129 59.597,8.151 59.374,9.162" id="Fill-35" fill="#000000"></path>
                    <path d="M61.002,7.242 L61.021,7.394 C61.061,7.7 61.144,8.335 61.171,9.097 L61.716,9.077 C61.688,8.29 61.602,7.637 61.562,7.324 L61.544,7.181 L61.002,7.242" id="Fill-36" fill="#000000"></path>
                    <path d="M62.26,7.144 C62.359,7.389 62.666,8.454 62.729,9.005 L63.272,8.943 C63.201,8.327 62.879,7.218 62.765,6.938 L62.26,7.144" id="Fill-37" fill="#000000"></path>
                    <path d="M67.308,7.124 C67.104,8.308 66.953,8.82 66.862,9.04 L67.365,9.248 C67.515,8.886 67.672,8.221 67.845,7.217 L67.859,7.14 L67.324,7.033 L67.308,7.124" id="Fill-38" fill="#000000"></path>
                    <path d="M68.728,9.04 L69.273,9.021 C69.257,8.58 69.179,7.919 69.042,7.055 L68.504,7.14 C68.637,7.983 68.712,8.622 68.728,9.04" id="Fill-39" fill="#000000"></path>
                    <path d="M70.316,6.898 L69.798,7.07 C69.92,7.435 70.124,8.044 70.337,8.967 L70.868,8.844 C70.649,7.895 70.44,7.271 70.316,6.898" id="Fill-40" fill="#000000"></path>
                    <path d="M59.81,6.614 L62.507,6.013 L62.752,6.61 L63.256,6.404 L62.576,4.736 L62.07,4.943 L62.298,5.501 L60.602,5.878 C61.914,4.316 62.873,2.685 62.918,2.609 L62.447,2.333 C62.442,2.342 62.234,2.695 61.888,3.221 L60.423,3.519 C61.06,2.266 61.64,0.995 61.647,0.981 L61.15,0.755 C61.143,0.77 60.441,2.31 59.736,3.663 L59.744,3.667 L59.851,4.193 L61.45,3.867 C60.978,4.542 60.373,5.345 59.708,6.073 L59.712,6.076 L59.691,6.081 L59.81,6.614" id="Fill-41" fill="#000000"></path>
                    <path d="M67.355,6.614 L70.052,6.013 L70.297,6.61 L70.802,6.404 L70.12,4.736 L69.615,4.943 L69.843,5.501 L68.147,5.878 C69.459,4.316 70.418,2.685 70.463,2.609 L69.993,2.333 C69.988,2.342 69.779,2.695 69.433,3.221 L67.968,3.519 C68.604,2.266 69.185,0.995 69.192,0.981 L68.695,0.755 C68.688,0.77 67.986,2.31 67.281,3.663 L67.288,3.667 L67.396,4.193 L68.995,3.867 C68.523,4.542 67.918,5.345 67.253,6.073 L67.257,6.077 L67.237,6.081 L67.355,6.614" id="Fill-42" fill="#000000"></path>
                    <path d="M67.08,2.096 L65.433,2.096 L65.433,0.708 L64.887,0.708 L64.887,2.096 L63.262,2.096 L63.262,2.642 L67.08,2.642 L67.08,2.096" id="Fill-43" fill="#000000"></path>
                    <path d="M63.819,3.414 L66.512,3.414 L66.512,3.96 L63.819,3.96 L63.819,3.414 Z" id="Fill-44" fill="#000000"></path>
                    <path d="M63.819,4.699 L66.512,4.699 L66.512,5.245 L63.819,5.245 L63.819,4.699 Z" id="Fill-45" fill="#000000"></path>
                    <path d="M63.91,8.815 L66.432,8.815 L66.432,6.337 L63.91,6.337 L63.91,8.815 Z M64.455,6.882 L65.887,6.882 L65.887,8.269 L64.455,8.269 L64.455,6.882 Z" id="Fill-46" fill="#000000"></path>
                    <path d="M69.674,13.098 L61.357,13.098 L61.583,12.144 L61.664,12.08 L69.401,12.08 L69.401,9.744 L60.478,9.744 L60.478,10.363 L68.782,10.363 L68.782,11.461 L61.175,11.461 L61.093,11.526 L60.597,13.627 L60.668,13.716 L69.279,13.716 L68.882,15.378 L68.817,15.429 L65.876,15.429 L65.876,16.047 L68.817,16.047 C69.134,16.047 69.41,15.83 69.483,15.521 L69.954,13.551 C69.981,13.441 69.997,13.313 69.928,13.224 C69.928,13.224 69.87,13.098 69.674,13.098" id="Fill-47" fill="#000000"></path>
                </g>
                <g transform="translate(56.000000, 28.000000)" fill="#000000" sketch:type="MSShapeGroup">
                    <path d="M0.232,6.155 L0.232,0.393 L1.356,0.393 L1.356,5.151 L3.969,5.151 L3.969,6.155 L0.232,6.155" id="Fill-48"></path>
                    <path d="M7.307,0.393 L8.432,0.393 L8.432,6.154 L7.307,6.154 L7.307,0.393 Z" id="Fill-49"></path>
                    <path d="M15.749,5.548 C15.289,6.025 14.739,6.203 14.124,6.203 C13.493,6.203 12.976,5.976 12.571,5.572 C11.989,4.99 12.005,4.269 12.005,3.274 C12.005,2.279 11.989,1.559 12.571,0.976 C12.976,0.571 13.477,0.345 14.124,0.345 C15.458,0.345 16.138,1.219 16.292,2.19 L15.159,2.19 C15.029,1.648 14.698,1.348 14.124,1.348 C13.817,1.348 13.566,1.47 13.405,1.656 C13.186,1.899 13.129,2.165 13.129,3.274 C13.129,4.382 13.186,4.658 13.405,4.901 C13.566,5.087 13.817,5.2 14.124,5.2 C14.464,5.2 14.739,5.079 14.925,4.876 C15.111,4.666 15.183,4.407 15.183,4.107 L15.183,3.889 L14.124,3.889 L14.124,2.95 L16.3,2.95 L16.3,3.792 C16.3,4.625 16.154,5.127 15.749,5.548" id="Fill-50"></path>
                    <path d="M22.938,6.155 L22.938,3.743 L20.988,3.743 L20.988,6.155 L19.864,6.155 L19.864,0.393 L20.988,0.393 L20.988,2.748 L22.938,2.748 L22.938,0.393 L24.062,0.393 L24.062,6.155 L22.938,6.155" id="Fill-51"></path>
                    <path d="M30.029,1.397 L30.029,6.155 L28.904,6.155 L28.904,1.397 L27.4,1.397 L27.4,0.393 L31.533,0.393 L31.533,1.397 L30.029,1.397" id="Fill-52"></path>
                    <path d="M41.203,6.203 C40.022,6.203 39.084,5.402 39.084,4.18 L39.084,0.393 L40.208,0.393 L40.208,4.14 C40.208,4.803 40.596,5.2 41.203,5.2 C41.809,5.2 42.205,4.803 42.205,4.14 L42.205,0.393 L43.321,0.393 L43.321,4.18 C43.321,5.402 42.383,6.203 41.203,6.203" id="Fill-53"></path>
                    <path d="M49.232,3.986 L48.124,3.986 L48.124,6.155 L47,6.155 L47,0.393 L49.232,0.393 C50.421,0.393 51.133,1.211 51.133,2.19 C51.133,3.169 50.421,3.986 49.232,3.986 M49.176,1.397 L48.124,1.397 L48.124,2.974 L49.176,2.974 C49.685,2.974 50.009,2.659 50.009,2.19 C50.009,1.72 49.685,1.397 49.176,1.397" id="Fill-54"></path>
                    <path d="M61.004,1.397 L61.004,6.155 L59.88,6.155 L59.88,1.397 L58.376,1.397 L58.376,0.393 L62.508,0.393 L62.508,1.397 L61.004,1.397" id="Fill-55"></path>
                    <path d="M68.637,6.155 L68.297,5.135 L66.251,5.135 L65.903,6.155 L64.731,6.155 L66.826,0.393 L67.707,0.393 L69.809,6.155 L68.637,6.155 L68.637,6.155 Z M67.295,2.093 L66.567,4.188 L67.998,4.188 L67.295,2.093 L67.295,2.093 Z" id="Fill-56"></path>
                    <path d="M72.946,0.393 L74.07,0.393 L74.07,6.154 L72.946,6.154 L72.946,0.393 Z" id="Fill-57"></path>
                    <path d="M82.747,6.155 L81.809,6.155 L80.749,2.659 L79.69,6.155 L78.752,6.155 L77.215,0.393 L78.388,0.393 L79.278,4.026 L80.329,0.393 L81.17,0.393 L82.221,4.026 L83.119,0.393 L84.291,0.393 L82.747,6.155" id="Fill-58"></path>
                    <path d="M90.58,6.155 L90.241,5.135 L88.195,5.135 L87.847,6.155 L86.674,6.155 L88.769,0.393 L89.65,0.393 L91.753,6.155 L90.58,6.155 L90.58,6.155 Z M89.238,2.093 L88.51,4.188 L89.941,4.188 L89.238,2.093 L89.238,2.093 Z" id="Fill-59"></path>
                    <path d="M98.294,6.155 L96.013,2.619 L96.013,6.155 L94.889,6.155 L94.889,0.393 L95.892,0.393 L98.172,3.921 L98.172,0.393 L99.297,0.393 L99.297,6.155 L98.294,6.155" id="Fill-60"></path>
                </g>
            </g>
        </g>
    </g>
</svg>